const int mario_main_theme[] PROGMEM = {
	NOTE_E7,12,		NOTE_E7,	REST,		NOTE_E7,	REST,		NOTE_C7,	NOTE_E7,	REST,
	NOTE_G7,		REST,		REST,		REST,		NOTE_G6,	REST,		REST,		REST,
	NOTE_C7,		REST,		REST,		NOTE_G6,	REST,		REST,		NOTE_E6,	REST,
	REST,			NOTE_A6,	REST,		NOTE_B6,	REST,		NOTE_AS6,	NOTE_A6,	REST,
	NOTE_G6,9,		NOTE_E7,	NOTE_G7,	NOTE_A7,12,	REST,		NOTE_F7,	NOTE_G7,	REST,
	NOTE_E7,		REST,		NOTE_C7,	NOTE_D7,	NOTE_B6,	REST,		REST,		NOTE_C7,
	REST,			REST,		NOTE_G6,	REST,		REST,		NOTE_E6,	REST,		REST,
	NOTE_A6,		REST,		NOTE_B6,	REST,		NOTE_AS6,	NOTE_A6,	REST,		NOTE_G6,9,
	NOTE_E7,		NOTE_G7,	NOTE_A7,12,	REST,		NOTE_F7,	NOTE_G7,	REST,		NOTE_E7,
	REST,			NOTE_C7,	NOTE_D7,	NOTE_B6,	REST,		REST,		NOTE_C7,
	MUSIC_END
};

const int star_wars_theme[] PROGMEM = {
	NOTE_AS4,8,		NOTE_AS4,		NOTE_AS4,															//1
	NOTE_F5,2,		NOTE_C6,
	NOTE_AS5,8,		NOTE_A5,		NOTE_G5,		NOTE_F6,2,		NOTE_C6,4,
	NOTE_AS5,8,		NOTE_A5,		NOTE_G5,		NOTE_F6,2,		NOTE_C6,4,
	NOTE_AS5,8,		NOTE_A5,		NOTE_AS5,		NOTE_G5,2,		NOTE_C5,8,		NOTE_C5,	NOTE_C5,
	NOTE_F5,2,		NOTE_C6,
	NOTE_AS5,8,		NOTE_A5,		NOTE_G5,		NOTE_F6,2,		NOTE_C6,4,

	NOTE_AS5,8,		NOTE_A5,		NOTE_G5,		NOTE_F6,2,		NOTE_C6,4,							//8
	NOTE_AS5,8,		NOTE_A5,		NOTE_AS5,		NOTE_G5,2,		NOTE_C5,-8,		NOTE_C5,16,
	NOTE_D5,-4,		NOTE_D5,8,		NOTE_AS5,		NOTE_A5,		NOTE_G5,		NOTE_F5,
	NOTE_F5,		NOTE_G5,		NOTE_A5,		NOTE_G5,4,		NOTE_D5,8,		NOTE_E5,4,	NOTE_C5,-8,		NOTE_C5,16,
	NOTE_D5,-4,		NOTE_D5,8,		NOTE_AS5,		NOTE_A5,		NOTE_G5,		NOTE_F5,

	NOTE_C6,-8,		NOTE_G5,16,		NOTE_G5,2,		REST,8,		NOTE_C5,								//13
	NOTE_D5,-4,		NOTE_D5,8,		NOTE_AS5,		NOTE_A5,	NOTE_G5,			NOTE_F5,
	NOTE_F5,		NOTE_G5,		NOTE_A5,		NOTE_G5,4,	NOTE_D5,8,			NOTE_E5,4,	NOTE_C6,-8,		NOTE_C6,16,
	NOTE_F6,4,		NOTE_DS6,8,		NOTE_CS6,4,		NOTE_C6,8,	NOTE_AS5,4,			NOTE_GS5,8,	NOTE_G5,4,		NOTE_F5,8,
	NOTE_C6,1,
	MUSIC_END
};